<?xml version="1.0" standalone="no"?><!DOCTYPE svg PUBLIC "-//W3C//DTD SVG 1.1//EN"
  "http://www.w3.org/Graphics/SVG/1.1/DTD/svg11.dtd">
<svg t="1493446237460" class="icon" style="" viewBox="0 0 1024 1024" version="1.1" xmlns="http://www.w3.org/2000/svg"
     p-id="633" width="200" height="200">
  <defs>
    <style type="text/css"></style>
  </defs>
  <path
    d="M500.622222 944.355556c-232.493511 0-420.977778-188.461511-420.977778-420.955022C79.644444 290.861511 268.128711 102.4 500.622222 102.4s420.977778 188.461511 420.977778 421.000533C921.6 755.894044 733.115733 944.355556 500.622222 944.355556zM466.488889 386.8672c0-31.425422-25.463467-56.888889-56.888889-56.888889s-56.888889 25.463467-56.888889 56.888889l0 273.066667c0 31.425422 25.463467 56.888889 56.888889 56.888889s56.888889-25.463467 56.888889-56.888889L466.488889 386.8672zM648.533333 386.8672c0-31.425422-25.463467-56.888889-56.888889-56.888889s-56.888889 25.463467-56.888889 56.888889l0 273.066667c0 31.425422 25.463467 56.888889 56.888889 56.888889s56.888889-25.463467 56.888889-56.888889L648.533333 386.8672z"
    p-id="634"></path>
</svg>
