<?xml version="1.0" standalone="no"?><!DOCTYPE svg PUBLIC "-//W3C//DTD SVG 1.1//EN"
  "http://www.w3.org/Graphics/SVG/1.1/DTD/svg11.dtd">
<svg t="1493446241976" class="icon" style="" viewBox="0 0 1024 1024" version="1.1" xmlns="http://www.w3.org/2000/svg"
     p-id="742" width="200" height="200">
  <defs>
    <style type="text/css"></style>
  </defs>
  <path
    d="M512 932.977778C279.483733 932.977778 91.022222 744.516267 91.022222 512 91.022222 279.506489 279.483733 91.022222 512 91.022222S932.977778 279.506489 932.977778 512C932.977778 744.516267 744.516267 932.977778 512 932.977778zM682.666667 432.3328c0-50.267022-40.7552-91.022222-91.022222-91.022222l-159.288889 0c-50.267022 0-91.022222 40.7552-91.022222 91.022222l0 159.288889c0 50.267022 40.7552 91.022222 91.022222 91.022222l159.288889 0c50.267022 0 91.022222-40.7552 91.022222-91.022222L682.666667 432.3328z"
    p-id="743"></path>
</svg>
